<svg version="1" xmlns="http://www.w3.org/2000/svg" width="266.667" height="266.667" viewBox="0 0 200.000000 200.000000"><path d="M87.5.7C62.9 4.5 41.1 15.9 26.1 32.8c-9.4 10.6-9.3 9.1-1.7 22 3.6 6.2 7.7 13.2 9 15.5 9.4 16.5 11.9 20.8 12.5 21.2.4.2 7.4-11.2 15.6-25.3C69.6 52.1 80.2 33.7 85 25.5 95 8.3 99 1.1 99 .4c0-.5-7.6-.3-11.5.3zM94.3 25.5L80.2 50h52.9c29.1 0 52.9-.3 52.9-.6 0-1.4-7.3-11.4-12.4-17-13.3-14.8-32.5-25.7-52.6-30-12.9-2.7-10.6-4.7-26.7 23.1zM11.1 54.2c-.5 1.3-2 4.8-3.4 7.8-6.5 14.5-9.1 37.2-6.3 54.5 1.2 7.3 5.5 21.3 7.8 25.7.8 1.7 3.2 1.8 28.9 1.8h28.1l-2.9-5.3c-2.3-4.1-25-43.7-36.5-63.5C25.5 73.1 22 67 19 61.6c-3-5.3-5.8-9.6-6.3-9.6-.4 0-1.1 1-1.6 2.2zM136.4 61.7c1.3 2.1 12.8 22 25.6 44.3 12.9 22.3 23.9 41.1 24.5 41.8.9 1 1.8-.2 4.3-5.8 1.8-3.8 3.2-7.6 3.2-8.3 0-.7.4-1.7.9-2.2 2.3-2.4 4.6-18.3 4.6-31.5-.1-14.7-1.8-24.6-6.2-35.8l-2.5-6.2H134l2.4 3.7zM144.2 126.2c-5.5 9.5-11 18.9-12.1 20.8-1.1 1.9-2.4 4.2-2.8 5-.4.8-3.2 5.8-6.3 11-3.1 5.2-5.9 10.2-6.3 11-.4.8-1.5 2.8-2.6 4.5-1.8 3-2.9 4.9-9.1 15.8l-3.3 5.8 6.9-.5c16.5-1.3 31.7-6.7 46.8-16.6 7.7-5 18.9-15.4 24-22.2l2.8-3.8-10.5-18.2c-5.7-10.1-11.5-20.1-12.7-22.3-4.8-8.6-3.7-9.3-14.8 9.7zM17.2 156.7c5.4 7.8 19.8 21.7 27.3 26.6 14 8.9 29.7 15 41.9 16.3l6.3.6 8.8-15.3c4.8-8.5 9.6-16.8 10.5-18.4.9-1.7 3.1-5.4 4.9-8.3 1.7-2.9 3.1-5.5 3.1-5.7 0-.3-23.9-.5-53.1-.5h-53l3.3 4.7z"/></svg>